<svg height="512pt" viewBox="0 0 511 512" width="512pt" xmlns="http://www.w3.org/2000/svg"><path d="m14.6875 415.824219c17.574219 15.683593 44.53125 14.175781 60.25-3.375 1.371094-1.546875 2.644531-3.171875 3.984375-4.746094 7.503906 7.550781 15.507813 14.59375 23.953125 21.078125-16.042969 11.171875-25.613281 29.484375-25.621094 49.035156v8.550782c.003906 14.140624 11.457032 25.609374 25.597656 25.632812h247.46875c14.132813-.015625 25.582032-11.46875 25.597657-25.601562v-45.855469c1.023437-.660157 2.035156-1.34375 3.054687-2.019531.890625.960937 1.652344 2.007812 2.644532 2.898437 17.566406 15.675781 44.507812 14.179687 60.226562-3.347656 44.765625-50.117188 69.851562-114.761719 70.609375-181.957031-.71875-68.582032-27.46875-134.324219-74.839844-183.925782-47.273437-47.898437-111.09375-72.191406-189.695312-72.191406-131.898438.148438-238.785157 107.035156-238.933594 238.933594-.050781 32.390625 6.5625 64.449218 19.425781 94.179687-5.144531 7.882813-10.859375 15.378907-17.097656 22.429688-15.644531 17.601562-14.136719 44.535156 3.375 60.28125zm341.777344-57.714844-272.113282 22.675781c-4.519531.410156-9.015624-1.007812-12.480468-3.941406-3.46875-2.929688-5.613282-7.125-5.960938-11.652344l-5.667968-68.023437c-.773438-9.394531 6.203124-17.640625 15.59375-18.433594l272.128906-22.671875c.484375-.035156.957031-.0625 1.433594-.0625 8.863281.023438 16.242187 6.816406 16.992187 15.652344l5.675781 68.03125c.777344 9.398437-6.207031 17.644531-15.601562 18.425781zm-262.144532 128.257813v-8.550782c0-23.578125 19.085938-42.703125 42.664063-42.757812h8.535156c15.804688.007812 30.300781 8.78125 37.640625 22.777344-.1875.550781-.449218 1.140624-.609375 1.671874-1.929687 5.898438-2.90625 12.070313-2.898437 18.277344v8.617188c.027344 2.914062.5625 5.800781 1.574218 8.535156h-78.375c-4.71875-.015625-8.539062-3.847656-8.53125-8.570312zm256 8.566406h-145.066406c-4.714844-.003906-8.53125-3.820313-8.535156-8.535156v-8.617188c0-4.480469.714844-8.929688 2.117188-13.183594.40625-1.34375.886718-2.664062 1.433593-3.957031 6.800781-15.546875 22.148438-25.59375 39.117188-25.605469h8.53125c18.828125.046875 35.808593 11.320313 43.167969 28.648438.066406.179687.210937.296875.285156.472656-.019532.394531-.007813.792969.03125 1.1875.882812 3.875 4.332031 6.628906 8.308594 6.632812.640624 0 1.28125-.074218 1.910156-.21875 19.917968-4.59375 39.160156-11.761718 57.230468-21.320312v35.960938c0 4.714843-3.820312 8.53125-8.53125 8.535156zm-102.402343-477.867188c73.867187 0 133.601562 22.582032 177.542969 67.109375 43.871093 46.539063 68.804687 107.769531 69.925781 171.714844-.703125 63.070313-24.238281 123.75-66.25 170.792969-9.636719 10.117187-25.476563 10.992187-36.167969 2-10.484375-9.464844-11.375-25.617188-1.992188-36.175782 31.320313-35.003906 49.652344-79.714843 51.917969-126.632812.21875-4.707031-3.417969-8.703125-8.125-8.925781-2.273437-.148438-4.507812.632812-6.191406 2.164062s-2.667969 3.683594-2.734375 5.960938c-2.082031 43.003906-18.886719 83.984375-47.597656 116.066406-10.34375 11.699219-13.464844 28.113281-8.136719 42.792969-2.390625 1.59375-4.769531 3.253906-7.15625 4.738281-18.054687 10.914063-37.585937 19.167969-57.992187 24.511719-10.929688-21.484375-32.9375-35.070313-57.042969-35.214844h-8.53125c-18.339844.039062-35.640625 8.515625-46.910157 22.980469-11.285156-14.472657-28.605468-22.9375-46.957031-22.957031h-8.535156c-5.601563.011718-11.175781.816406-16.554687 2.390624-9.921876-6.9375-19.253907-14.683593-27.902344-23.152343l265.34375-22.121094c18.78125-1.578125 32.734375-18.0625 31.1875-36.84375l-5.671875-68.03125c-.734375-9.027344-5.035157-17.390625-11.949219-23.238281-6.910156-5.851563-15.871094-8.707032-24.894531-7.9375l-272.125 22.675781c-18.777344 1.582031-32.726563 18.070313-31.175781 36.851563l2.675781 32.085937-.066407-.128906c-13.125-28.753907-19.878906-60.003907-19.800781-91.609375.136719-122.476563 99.390625-221.730469 221.867188-221.867188zm-223.855469 349.824219c4.582031-5.148437 8.804688-10.523437 12.816406-15.996094 3.992188 7.539063 8.382813 14.863281 13.15625 21.933594 2.339844 8.429687 7.824219 15.636719 15.324219 20.140625.601563.714844 1.25 1.425781 1.863281 2.132812-1.675781 1.996094-3.300781 4.035157-5.019531 5.972657-9.636719 10.109375-25.472656 10.984375-36.167969 2-10.484375-9.472657-11.363281-25.625-1.972656-36.183594zm0 0"/><path d="m164.417969 314.175781-7.503907.625 5.503907-13.757812c1.75-4.378907-.378907-9.34375-4.757813-11.09375-4.375-1.746094-9.34375.382812-11.089844 4.757812l-8.671874 21.675781-14.992188 1.25 5.503906-13.757812c1.75-4.378906-.378906-9.34375-4.757812-11.09375-4.375-1.746094-9.34375.382812-11.089844 4.761719l-8.675781 21.671875-16 1.332031c-4.539063.402344-7.960938 4.300781-7.777344 8.851563.1875 4.554687 3.917969 8.15625 8.476563 8.183593.238281 0 .476562-.011719.714843-.035156l7.5-.621094-5.507812 13.765625c-.839844 2.101563-.808594 4.449219.082031 6.53125.890625 2.082032 2.574219 3.722656 4.675781 4.5625 1.007813.402344 2.082031.609375 3.167969.605469 3.492188 0 6.628906-2.125 7.925781-5.367187l8.679688-21.683594 14.992187-1.246094-5.503906 13.757812c-.839844 2.101563-.8125 4.449219.082031 6.53125.890625 2.082032 2.574219 3.722657 4.675781 4.5625 1.007813.402344 2.082032.609376 3.167969.605469 3.492188 0 6.628907-2.125 7.925781-5.367187l8.671876-21.671875 16.003906-1.335938c2.253906-.183593 4.34375-1.257812 5.804687-2.984375 1.460938-1.730468 2.175781-3.96875 1.984375-6.222656-.140625-2.273438-1.203125-4.390625-2.941406-5.863281-1.738281-1.472657-4.003906-2.167969-6.269531-1.929688zm0 0"/><path d="m343.003906 299.292969-7.503906.625 5.503906-13.757813c1.746094-4.378906-.382812-9.34375-4.757812-11.09375-4.378906-1.75-9.34375.382813-11.09375 4.757813l-8.667969 21.675781-15 1.25 5.5-13.757812c1.132813-2.832032.667969-6.050782-1.21875-8.445313-1.886719-2.398437-4.90625-3.605469-7.925781-3.167969-3.015625.433594-5.570313 2.449219-6.703125 5.277344l-8.671875 21.675781-15.996094 1.332031c-4.539062.402344-7.960938 4.300782-7.773438 8.851563.1875 4.554687 3.917969 8.15625 8.472657 8.183594.242187 0 .480469-.011719.71875-.035157l7.496093-.621093-5.503906 13.765625c-1.75 4.375.378906 9.339844 4.757813 11.089844 4.375 1.75 9.34375-.378907 11.089843-4.757813l8.671876-21.683594 15-1.25-5.5 13.769531c-1.75 4.375.382812 9.339844 4.757812 11.089844 4.378906 1.75 9.34375-.382812 11.089844-4.757812l8.675781-21.683594 16-1.332031c2.257813-.183594 4.347656-1.261719 5.808594-2.988281 1.460937-1.726563 2.175781-3.964844 1.984375-6.222657-.148438-2.269531-1.214844-4.382812-2.953125-5.851562-1.734375-1.46875-3.996094-2.167969-6.257813-1.9375zm0 0"/><path d="m216.144531 326.957031c.238281.003907.480469-.007812.714844-.03125 2.257813-.183593 4.347656-1.261719 5.808594-2.988281 1.460937-1.726562 2.175781-3.964844 1.984375-6.21875l-2.125-25.515625c-.152344-2.269531-1.214844-4.378906-2.953125-5.847656-1.734375-1.46875-3.992188-2.171875-6.253907-1.945313-2.257812.1875-4.347656 1.261719-5.808593 2.988282-1.460938 1.726562-2.175781 3.964843-1.984375 6.222656l2.125 25.511718c.363281 4.421876 4.058594 7.824219 8.492187 7.824219zm0 0"/><path d="m217.566406 335.429688c-4.695312.394531-8.183594 4.519531-7.789062 9.214843.390625 4.695313 4.515625 8.1875 9.210937 7.792969 4.695313-.390625 8.1875-4.515625 7.792969-9.210938-.1875-2.257812-1.261719-4.347656-2.992188-5.808593-1.726562-1.460938-3.964843-2.175781-6.222656-1.988281zm0 0"/><path d="m145.519531 229.890625c28.289063-.054687 51.195313-23 51.199219-51.289063 0-.25-.117188-.457031-.140625-.699218-.054687-.574219-.167969-1.144532-.339844-1.695313-.261719-1.03125-.753906-1.984375-1.445312-2.792969-.355469-.46875-.761719-.898437-1.207031-1.28125-.183594-.152343-.285157-.367187-.484376-.511718l-57-40.191406c-1.0625-.699219-2.269531-1.15625-3.527343-1.332032-.222657-.046875-.445313-.074218-.671875-.101562-.269532-.027344-.539063-.125-.808594-.125-.132812 0-.246094.070312-.375.078125-.851562.003906-1.695312.148437-2.5.425781-.113281.039062-.214844.105469-.328125.144531l-.242187.109375c-23.222657 8.660156-36.917969 32.703125-32.527344 57.09375 4.394531 24.394532 25.613281 42.148438 50.398437 42.167969zm-15.316406-81.734375 49.03125 34.574219c-1.96875 16.140625-15.074219 28.632812-31.289063 29.828125-16.214843 1.195312-31.011718-9.238282-35.332031-24.910156-4.316406-15.675782 3.050781-32.214844 17.589844-39.492188zm0 0"/><path d="m145.527344 179.21875c0 4.714844-3.824219 8.539062-8.542969 8.539062-4.714844 0-8.539063-3.824218-8.539063-8.539062 0-4.71875 3.824219-8.542969 8.539063-8.542969 4.71875 0 8.542969 3.824219 8.542969 8.542969zm0 0"/><path d="m108.773438 89.226562.292968-.035156c8.199219-1.046875 16.480469-1.226562 24.714844-.535156 7.683594.691406 15.222656 2.5 22.386719 5.363281 7.167969 3.152344 13.90625 7.203125 20.054687 12.054688 3.253906 2.378906 6.132813 5.359375 9.425782 7.976562 3.011718 2.921875 5.953124 5.996094 9.375 8.875l.304687.253907c1.125.941406 2.746094 1 3.933594.140624 1.191406-.855468 1.648437-2.410156 1.109375-3.773437-1.707032-4.304687-3.675782-8.5-5.902344-12.558594-2.503906-3.992187-5.332031-7.773437-8.457031-11.300781-6.519531-7.285156-14.558594-13.050781-23.546875-16.894531-9.144532-3.859375-19.136719-5.289063-28.996094-4.144531-9.644531.933593-18.796875 4.679687-26.324219 10.777343-.550781.46875-.835937 1.179688-.757812 1.898438.132812 1.183593 1.203125 2.035156 2.386719 1.902343zm0 0"/><path d="m299.351562 130.375c-.824218-.28125-1.691406-.421875-2.566406-.417969-.140625-.007812-.253906-.082031-.398437-.082031-.289063.03125-.570313.074219-.855469.132812-.140625.019532-.285156.039063-.425781.066407-1.300781.164062-2.542969.628906-3.632813 1.359375l-57 40.191406c-.199218.140625-.300781.359375-.484375.511719-1.695312 1.46875-2.769531 3.535156-2.992187 5.765625-.023438.242187-.140625.449218-.140625.699218.019531 26 19.523437 47.859376 45.355469 50.828126 25.828124 2.96875 49.785156-13.894532 55.699218-39.214844 5.917969-25.320313-8.082031-51.054688-32.554687-59.839844zm-17.300781 82.449219c-17.226562-.070313-31.695312-12.984375-33.714843-30.09375l49.046874-34.582031c14.132813 7.113281 21.53125 23 17.882813 38.394531s-17.390625 26.269531-33.214844 26.28125zm0 0"/><path d="m282.058594 179.21875c0 4.714844-3.824219 8.539062-8.539063 8.539062-4.71875 0-8.542969-3.824218-8.542969-8.539062 0-4.71875 3.824219-8.542969 8.542969-8.542969 4.714844 0 8.539063 3.824219 8.539063 8.542969zm0 0"/><path d="m232.046875 122.859375.304687-.25c3.445313-2.847656 6.410157-5.894531 9.441407-8.796875 3.316406-2.589844 6.21875-5.546875 9.492187-7.898438 6.1875-4.800781 12.957032-8.800781 20.148438-11.894531 7.183594-2.804687 14.742187-4.550781 22.429687-5.1875 8.238281-.621093 16.519531-.375 24.707031.738281l.308594.035157c.945313.109375 1.847656-.414063 2.226563-1.285157.378906-.871093.144531-1.886718-.578125-2.503906-7.476563-6.160156-16.601563-9.980468-26.234375-10.988281-9.855469-1.222656-19.855469.125-29.03125 3.910156-9.019531 3.773438-17.101563 9.476563-23.679688 16.707031-3.152343 3.507813-6.011719 7.265626-8.546875 11.238282-2.257812 4.042968-4.265625 8.21875-6.003906 12.511718-.546875 1.359376-.101562 2.917969 1.082031 3.78125 1.183594.867188 2.800781.820313 3.933594-.113281zm0 0"/></svg>