<svg height="512pt" viewBox="0 0 512 512.06308" width="512pt" xmlns="http://www.w3.org/2000/svg"><path d="m145.074219 128.0625c-19.34375.019531-37.03125 10.925781-45.730469 28.207031-8.695312 17.28125-6.921875 37.984375 4.589844 53.53125-2.671875 1.835938-5.199219 3.871094-7.558594 6.097657-3.234375 3.347656-3.1875 8.667968.101562 11.960937 3.292969 3.292969 8.617188 3.335937 11.964844.101563 10.058594-9.105469 23.066406-14.273438 36.632813-14.566407 13.550781.371094 26.53125 5.53125 36.632812 14.566407 3.347657 3.234374 8.671875 3.191406 11.960938-.101563 3.292969-3.292969 3.339843-8.613281.105469-11.960937-2.359376-2.226563-4.886719-4.261719-7.558594-6.097657 11.511718-15.546875 13.285156-36.25 4.585937-53.53125-8.695312-17.28125-26.382812-28.1875-45.726562-28.207031zm-25.722657 73.457031c-11.996093-13.75-11.054687-34.503906 2.140626-47.113281 13.195312-12.605469 33.96875-12.605469 47.164062 0 13.191406 12.609375 14.136719 33.363281 2.140625 47.113281-16.449219-6.921875-34.996094-6.921875-51.445313 0zm0 0"/><path d="m136.539062 170.699219c-3.457031-.007813-6.582031 2.070312-7.910156 5.265625-1.328125 3.191406-.597656 6.875 1.84375 9.320312 2.445313 2.449219 6.121094 3.183594 9.320313 1.863282 3.195312-1.324219 5.28125-4.441407 5.28125-7.902344.003906-4.714844-3.816407-8.542969-8.535157-8.546875zm0 0"/><path d="m92.035156 118.480469c-.269531.925781.105469 1.921875.921875 2.441406.8125.519531 1.875.433594 2.597657-.207031l.15625-.136719c11.957031-11.789063 26.289062-20.898437 42.042968-26.722656 7.535156-2.34375 15.472656-3.128907 23.320313-2.304688 4.144531.335938 8.261719.953125 12.320312 1.851563 4.179688.875 8.257813 2.402344 12.777344 3.273437l.566406.109375c1.433594.273438 2.871094-.464844 3.480469-1.792968.609375-1.328126.234375-2.898438-.910156-3.808594-3.710938-3.109375-7.679688-5.898438-11.867188-8.332032-4.390625-2.367187-9.066406-4.167968-13.910156-5.363281-10.023438-2.730469-20.621094-2.527343-30.53125.589844-19.421875 5.988281-34.707031 21.066406-40.960938 40.402344zm0 0"/><path d="m239.945312 96.785156.5625-.109375c4.519532-.871093 8.597657-2.398437 12.78125-3.277343 4.058594-.894532 8.171876-1.511719 12.316407-1.847657 7.851562-.824219 15.785156-.039062 23.324219 2.304688 15.75 5.820312 30.082031 14.933593 42.039062 26.722656l.167969.148437c.726562.632813 1.785156.710938 2.597656.191407s1.183594-1.511719.910156-2.4375c-6.253906-19.339844-21.539062-34.414063-40.960937-40.40625-9.910156-3.117188-20.507813-3.320313-30.53125-.585938-4.84375 1.191407-9.519532 2.996094-13.910156 5.363281-4.1875 2.433594-8.15625 5.21875-11.867188 8.332032-1.144531.910156-1.519531 2.480468-.90625 3.808594.609375 1.328124 2.046875 2.066406 3.480469 1.789062zm0 0"/><path d="m279.105469 173.203125c-2.882813-2.890625-7.410157-3.339844-10.804688-1.074219-3.398437 2.265625-4.722656 6.617188-3.160156 10.390625 1.558594 3.773438 5.570313 5.921875 9.574219 5.125 4.007812-.796875 6.890625-4.308593 6.890625-8.394531.007812-2.269531-.890625-4.445312-2.5-6.046875zm0 0"/><path d="m232.90625 227.960938c1.601562 1.601562 3.769531 2.503906 6.035156 2.503906 2.261719 0 4.433594-.902344 6.03125-2.503906 10.0625-9.105469 23.070313-14.273438 36.632813-14.566407 13.550781.371094 26.53125 5.53125 36.636719 14.566407 3.347656 3.234374 8.667968 3.191406 11.960937-.101563s3.335937-8.613281.105469-11.960937c-2.359375-2.222657-4.882813-4.257813-7.550782-6.089844 15.660157-21.15625 12.730469-50.738282-6.777343-68.410156-19.507813-17.671876-49.238281-17.671876-68.746094 0-19.507813 17.671874-22.441406 47.253906-6.777344 68.410156-2.667969 1.832031-5.191406 3.867187-7.550781 6.085937-1.601562 1.601563-2.5 3.769531-2.5 6.035157 0 2.261718.898438 4.433593 2.5 6.03125zm14.566406-48.613282c-.042968-9.0625 3.542969-17.769531 9.960938-24.171875 13.511718-12.960937 34.839844-12.957031 48.347656.003907 12.628906 12.636718 13.335938 32.882812 1.621094 46.371093-16.492188-6.957031-35.09375-6.957031-51.585938 0-5.367187-6.152343-8.332031-14.039062-8.34375-22.203125zm0 0"/><path d="m281.605469 256.0625h-136.53125c-9.421875.011719-17.054688 7.644531-17.066407 17.066406v8.535156c.070313 39.214844 26.835938 73.34375 64.90625 82.757813.097657.039063.207032.039063.304688.078125 21.921875 5.441406 45.109375 1.914062 64.417969-9.800781 19.3125-11.714844 33.15625-30.644531 38.460937-52.601563.054688-.125.054688-.273437.101563-.402344 1.617187-6.554687 2.449219-13.28125 2.476562-20.03125v-8.535156c-.011719-9.421875-7.648437-17.054687-17.070312-17.066406zm-136.53125 25.601562v-8.535156h136.53125v8.535156c-.015625 2.851563-.214844 5.703126-.589844 8.53125h-42.074219c-28.265625.03125-51.167968 22.9375-51.199218 51.199219v3.507813c-25.761719-10.441406-42.628907-35.445313-42.667969-63.238282zm68.265625 68.265626c-2.851563-.019532-5.703125-.21875-8.53125-.59375v-7.941407c.019531-18.839843 15.289062-34.113281 34.132812-34.132812h37.640625c-10.441406 25.761719-35.445312 42.628906-63.242187 42.667969zm0 0"/><path d="m18.15625 94.964844 27.667969 16.265625c-42.371094 66.445312-49.058594 149.570312-17.855469 221.9375-5.148438 7.886719-10.863281 15.386719-17.101562 22.441406-15.652344 17.574219-14.121094 44.503906 3.421874 60.195313 17.539063 15.6875 44.472657 14.21875 60.203126-3.289063 1.363281-1.535156 2.628906-3.15625 3.960937-4.71875 7.527344 7.53125 15.546875 14.554687 24.007813 21.019531-16.0625 11.171875-25.644532 29.496094-25.652344 49.0625v8.550782c.003906 14.140624 11.457031 25.609374 25.597656 25.632812h247.46875c14.132812-.015625 25.582031-11.46875 25.597656-25.597656v-45.855469c1.023438-.664063 2.035156-1.347656 3.058594-2.027344.890625.964844 1.648438 2.007813 2.644531 2.902344 17.5625 15.679687 44.503907 14.183594 60.226563-3.339844 44.765625-50.125 69.847656-114.773437 70.605468-181.972656-.800781-46.410156-13.230468-91.875-36.15625-132.234375 20.707032-15.667969 25.199219-44.960938 10.140626-66.117188-13.015626-18.246093-37.121094-24.742187-57.542969-15.511718-12.140625-11.078125-29.195313-14.996094-44.953125-10.332032-41.925782-21.9375-88.714844-32.917968-136.023438-31.914062-50.230468.046875-99.167968 15.957031-139.820312 45.457031-2.246094-9.796875-8.414063-18.246093-17.066406-23.363281-14.359376-8.492188-32.664063-6.054688-44.304688 5.894531-16.027344-4.605469-33.128906 2.34375-41.398438 16.828125-9.980468 17.519532-4.074218 39.808594 13.273438 50.085938zm43.601562 306.183594c-9.628906 10.132812-25.484374 11.003906-36.167968 1.988281-10.492188-9.464844-11.375-25.625-1.972656-36.179688 4.570312-5.132812 8.789062-10.496093 12.785156-15.957031 8.433594 15.820312 18.621094 30.636719 30.378906 44.171875-1.679688 1.996094-3.304688 4.039063-5.023438 5.976563zm32.117188 85.28125v-8.550782c0-23.578125 19.085938-42.707031 42.664062-42.761718h8.535157c15.804687.007812 30.296875 8.78125 37.640625 22.773437-.1875.554687-.449219 1.144531-.609375 1.675781-1.929688 5.902344-2.90625 12.070313-2.898438 18.277344v8.621094c.03125 2.910156.5625 5.800781 1.574219 8.53125h-78.375c-4.71875-.011719-8.539062-3.847656-8.53125-8.566406zm256 8.566406h-145.066406c-4.710938-.003906-8.53125-3.820313-8.535156-8.53125v-8.621094c0-4.476562.714843-8.929688 2.117187-13.183594.40625-1.34375.886719-2.664062 1.433594-3.957031 6.800781-15.542969 22.148437-25.59375 39.117187-25.609375h8.53125c18.828125.050781 35.8125 11.324219 43.167969 28.65625.066406.183594.210937.300781.285156.472656-.019531.398438-.007812.792969.03125 1.191406.886719 3.875 4.332031 6.625 8.308594 6.628907.640625 0 1.28125-.070313 1.910156-.21875 19.917969-4.597657 39.15625-11.765625 57.230469-21.320313v35.960938c-.003906 4.710937-3.820312 8.527344-8.53125 8.53125zm70.234375-436.703125c2.742187 3.421875 7.640625 4.203125 11.3125 1.800781 13.433594-8.773438 31.394531-5.382812 40.707031 7.679688 9.792969 13.734374 6.757813 32.789062-6.820312 42.804687l-54.039063 39.636719-39.058593-54.464844c-9.785157-13.734375-6.757813-32.777344 6.808593-42.796875 12.914063-9.527344 31.042969-7.167969 41.089844 5.339844zm-54.308594-16.289063c-18.4375 16.183594-21.660156 43.6875-7.460937 63.695313l44.085937 61.472656c1.328125 1.851563 3.339844 3.09375 5.59375 3.453125 2.25.359375 4.550781-.199219 6.386719-1.550781l47.617188-34.921875c20.835937 37.269531 32.144531 79.109375 32.917968 121.796875-.703125 63.070312-24.238281 123.75-66.25 170.796875-9.628906 10.128906-25.484375 11.003906-36.167968 1.992187-10.488282-9.457031-11.378907-25.609375-1.992188-36.164062 31.304688-35.011719 49.636719-79.71875 51.917969-126.632813.222656-4.707031-3.410157-8.703125-8.117188-8.929687-4.664062-.105469-8.59375 3.464843-8.933593 8.121093-2.089844 43.003907-18.894532 83.984376-47.597657 116.070313-10.34375 11.703125-13.464843 28.117187-8.136719 42.796875-2.390624 1.59375-4.769531 3.253906-7.15625 4.738281-18.050781 10.914063-37.582031 19.167969-57.984374 24.511719-10.929688-21.488281-32.941407-35.078125-57.050782-35.222656h-8.53125c-18.339844.039062-35.640625 8.515625-46.910156 22.984375-11.285156-14.472657-28.605469-22.941407-46.957031-22.960938h-8.535157c-5.597656.011719-11.167968.8125-16.539062 2.386719-97.21875-68.027344-123.457031-200.640625-59.464844-300.558594l4.53125 2.664063c1.308594.769531 2.804688 1.179687 4.324219 1.179687.738281-.003906 1.46875-.097656 2.183594-.285156 2.203125-.582031 4.082031-2.023438 5.214843-4.003906l27.078126-47.1875c.554687-1.089844 1.054687-2.210938 1.496093-3.351563 39.824219-33.40625 90.132813-51.730469 142.109375-51.765625 40.820313-.777344 81.277344 7.730469 118.328125 24.875zm-346.117187 11.371094c5.070312-8.917969 16.28125-12.238281 25.390625-7.515625 3.898437 2.007813 8.683593.738281 11.074219-2.9375 5.578124-8.609375 16.957031-11.277344 25.785156-6.050781 9.3125 5.511718 12.488281 17.476562 7.132812 26.878906l-22.785156 39.710938-39.476562-23.210938c-9.308594-5.515625-12.476563-17.472656-7.121094-26.875zm0 0"/></svg>