<svg height="512pt" viewBox="0 0 512.01043 512" width="512pt" xmlns="http://www.w3.org/2000/svg"><path d="m42.675781 426.671875c12.140625-.011719 23.699219-5.175781 31.804688-14.210937 1.371093-1.542969 2.636719-3.160157 3.976562-4.730469 7.527344 7.535156 15.546875 14.554687 24.007813 21.019531-16.066406 11.175781-25.648438 29.503906-25.65625 49.074219v8.546875c.007812 14.140625 11.460937 25.609375 25.601562 25.632812h247.46875c14.128906-.015625 25.582032-11.464844 25.597656-25.597656v-45.855469c1.023438-.660156 2.035157-1.34375 3.054688-2.023437.890625.964844 1.648438 2.011718 2.644531 2.902344 17.5625 15.675781 44.5 14.179687 60.21875-3.34375 44.761719-50.125 69.847657-114.769532 70.617188-181.96875-.722657-68.578126-27.472657-134.320313-74.839844-183.917969-47.273437-47.90625-111.089844-72.19531275-189.695313-72.19531275-80.34375-.05468745-155.328124 40.29687475-199.539062 107.38671875-44.207031 67.085937-51.710938 151.910156-19.964844 225.714844-5.148437 7.886719-10.859375 15.386719-17.097656 22.441406-11.222656 12.542969-14.027344 30.507813-7.15625 45.875 6.867188 15.363281 22.128906 25.253906 38.957031 25.25zm51.203125 59.699219v-8.546875c0-23.582031 19.085938-42.710938 42.664063-42.765625h8.535156c15.804687.011718 30.300781 8.78125 37.640625 22.777344-.1875.554687-.449219 1.140624-.609375 1.679687-1.929687 5.898437-2.90625 12.066406-2.898437 18.273437v8.617188c.027343 2.914062.5625 5.800781 1.570312 8.535156h-78.371094c-4.71875-.015625-8.539062-3.847656-8.53125-8.570312zm256 8.566406h-145.070312c-4.707032-.003906-8.523438-3.820312-8.53125-8.53125v-8.621094c0-4.472656.714844-8.917968 2.117187-13.164062.40625-1.347656.882813-2.675782 1.429688-3.972656 6.800781-15.542969 22.152343-25.59375 39.121093-25.613282h8.53125c18.828126.050782 35.8125 11.324219 43.171876 28.65625.0625.175782.203124.292969.277343.460938-.019531.402344-.011719.804687.03125 1.203125.886719 3.875 4.332031 6.625 8.308594 6.628906.640625 0 1.285156-.070313 1.910156-.214844 19.921875-4.601562 39.160157-11.765625 57.234375-21.320312v35.957031c-.003906 4.710938-3.824218 8.527344-8.53125 8.53125zm-102.402344-477.867188c73.867188 0 133.605469 22.582032 177.542969 67.113282 43.871094 46.539062 68.804688 107.765625 69.925781 171.710937-.714843 63.066407-24.25 123.742188-66.257812 170.792969-9.625 10.136719-25.484375 11.011719-36.164062 1.992188-10.488282-9.457032-11.375-25.609376-1.988282-36.160157 31.308594-35.015625 49.636719-79.722656 51.921875-126.636719.105469-2.261718-.6875-4.472656-2.210937-6.144531-1.523438-1.675781-3.648438-2.675781-5.910156-2.785156-4.667969-.109375-8.597657 3.464844-8.929688 8.121094-2.09375 43.003906-18.894531 83.984375-47.597656 116.074219-10.347656 11.699218-13.472656 28.117187-8.144532 42.796874-2.390624 1.59375-4.765624 3.253907-7.148437 4.738282-18.054687 10.914062-37.585937 19.167968-57.992187 24.511718-10.929688-21.492187-32.9375-35.082031-57.046876-35.226562h-8.53125c-18.339843.042969-35.640624 8.523438-46.910156 22.988281-11.285156-14.472656-28.605468-22.945312-46.957031-22.964843h-8.535156c-5.597657.011718-11.164063.8125-16.535157 2.382812-79.21875-55.578125-113.25-156.101562-84.085937-248.371094 29.164063-92.269531 114.785156-154.976562 211.554687-154.933594zm-223.855468 349.828126c4.574218-5.136719 8.785156-10.496094 12.785156-15.957032 8.429688 15.820313 18.621094 30.636719 30.375 44.175782-1.675781 1.996093-3.304688 4.039062-5.023438 5.972656-9.628906 10.132812-25.488281 11.007812-36.167968 1.992187-10.492188-9.46875-11.371094-25.632812-1.96875-36.183593zm0 0"/><path d="m111.324219 159.222656c9.46875.195313 18.875-1.570312 27.628906-5.1875 8.867187-3.71875 16.691406-9.554687 22.78125-16.996094 6.128906-7.191406 9.996094-16.03125 11.125-25.410156.089844-.941406-.4375-1.835937-1.308594-2.203125-.871093-.371093-1.882812-.128906-2.496093.589844l-.195313.234375c-5.109375 6.210938-10.835937 11.886719-17.089844 16.941406-5.902343 4.703125-12.386719 8.632813-19.285156 11.691406-7.113281 2.855469-14.527344 4.898438-22.097656 6.097657-3.863281.753906-7.894531.871093-11.949219 1.511719-4.082031.265624-8.226562.371093-12.542969.972656l-.390625.054687c-1.445312.203125-2.570312 1.355469-2.742187 2.808594-.167969 1.449219.664062 2.832031 2.027343 3.363281 4.203126 1.632813 8.503907 2.992188 12.882813 4.070313 4.503906.859375 9.070313 1.347656 13.652344 1.460937zm0 0"/><path d="m270.851562 154.035156c8.75 3.617188 18.15625 5.382813 27.625 5.1875 4.582032-.117187 9.144532-.605468 13.648438-1.460937 4.375-1.082031 8.679688-2.441407 12.882812-4.074219 1.363282-.527344 2.195313-1.910156 2.027344-3.363281-.171875-1.453125-1.300781-2.605469-2.746094-2.808594l-.386718-.054687c-4.3125-.597657-8.457032-.703126-12.542969-.972657-4.054687-.636719-8.085937-.757812-11.953125-1.511719-7.570312-1.195312-14.980469-3.242187-22.09375-6.097656-6.898438-3.058594-13.378906-6.984375-19.28125-11.6875-6.253906-5.054687-11.980469-10.734375-17.089844-16.945312l-.207031-.242188c-.613281-.71875-1.625-.957031-2.492187-.585937-.871094.371093-1.398438 1.265625-1.304688 2.207031 1.128906 9.382812 4.996094 18.21875 11.121094 25.410156 6.09375 7.445313 13.921875 13.28125 22.792968 17zm0 0"/><path d="m185.242188 227.90625c2.210937-2.144531 3.09375-5.3125 2.3125-8.292969-.78125-2.976562-3.105469-5.304687-6.085938-6.085937-2.976562-.78125-6.148438.101562-8.292969 2.3125-10.058593 9.105468-23.066406 14.277344-36.632812 14.566406-13.558594-.367188-26.546875-5.539062-36.648438-14.585938-3.339843-3.328124-8.742187-3.320312-12.070312.015626-3.328125 3.339843-3.316407 8.742187.019531 12.070312 13.285156 12.269531 30.617188 19.234375 48.699219 19.566406 18.082031-.332031 35.414062-7.296875 48.699219-19.566406zm0 0"/><path d="m273.078125 247.472656c18.082031-.332031 35.414063-7.296875 48.699219-19.566406 2.210937-2.144531 3.09375-5.3125 2.3125-8.292969-.78125-2.976562-3.109375-5.304687-6.085938-6.085937-2.980468-.78125-6.148437.101562-8.292968 2.3125-10.0625 9.105468-23.066407 14.277344-36.632813 14.566406-13.558594-.367188-26.546875-5.539062-36.652344-14.585938-3.335937-3.328124-8.738281-3.320312-12.066406.015626-3.328125 3.339843-3.320313 8.742187.019531 12.070312 13.285156 12.269531 30.617188 19.234375 48.699219 19.566406zm0 0"/><path d="m247.476562 307.207031h-102.398437c-4.714844 0-8.535156 3.820313-8.535156 8.53125 0 4.714844 3.820312 8.535157 8.535156 8.535157h102.398437c4.710938.003906 8.527344 3.820312 8.535157 8.53125v8.535156c0 4.710937 3.820312 8.53125 8.53125 8.53125 4.714843 0 8.535156-3.820313 8.535156-8.53125v-8.535156c-.015625-14.132813-11.46875-25.582032-25.601563-25.597657zm0 0"/><path d="m187.742188 341.339844h-8.53125c-4.714844 0-8.535157 3.820312-8.535157 8.53125 0 4.714844 3.820313 8.535156 8.535157 8.535156h8.53125c4.714843 0 8.535156-3.820312 8.535156-8.535156 0-4.710938-3.820313-8.53125-8.535156-8.53125zm0 0"/></svg>