<svg height="512pt" viewBox="0 0 512 512.00006" width="512pt" xmlns="http://www.w3.org/2000/svg"><path d="m14.183594 415.820312c17.574218 15.6875 44.535156 14.179688 60.25-3.371093 1.367187-1.535157 2.628906-3.15625 3.964844-4.722657 7.527343 7.535157 15.546874 14.554688 24.003906 21.019532-16.0625 11.175781-25.644532 29.503906-25.652344 49.070312v8.550782c.007812 14.140624 11.460938 25.609374 25.601562 25.632812h247.464844c14.132813-.015625 25.585938-11.46875 25.601563-25.601562v-45.851563c1.023437-.664063 2.03125-1.347656 3.054687-2.023437.890625.960937 1.648438 2.007812 2.644532 2.898437 17.566406 15.675781 44.503906 14.179687 60.222656-3.34375 44.757812-50.125 69.84375-114.769531 70.609375-181.964844-.71875-68.578125-27.46875-134.324219-74.835938-183.921875-47.273437-47.902344-111.097656-72.191406-189.695312-72.191406-80.34375-.0585938-155.332031 40.296875-199.539063 107.382812-44.210937 67.089844-51.714844 151.914063-19.96875 225.71875-5.144531 7.886719-10.863281 15.390626-17.101562 22.445313-15.636719 17.601563-14.128906 44.527344 3.375 60.273437zm79.632812 70.546876v-8.550782c.003906-23.578125 19.089844-42.707031 42.667969-42.761718h8.53125c15.804687.007812 30.300781 8.777343 37.644531 22.773437-.1875.554687-.453125 1.140625-.609375 1.675781-1.929687 5.898438-2.910156 12.070313-2.898437 18.277344v8.617188c.027344 2.914062.558594 5.800781 1.570312 8.535156h-78.371094c-4.722656-.011719-8.539062-3.847656-8.535156-8.566406zm256 8.566406h-145.066406c-4.710938-.003906-8.527344-3.824219-8.53125-8.535156v-8.617188c0-4.480469.714844-8.929688 2.113281-13.183594.410157-1.34375.886719-2.664062 1.433594-3.957031 6.800781-15.542969 22.152344-25.59375 39.117187-25.609375h8.535157c18.828125.046875 35.8125 11.324219 43.164062 28.65625.066407.179688.210938.300781.285157.472656-.015626.398438-.007813.796875.035156 1.191406.882812 3.875 4.328125 6.625 8.304687 6.628907.644531 0 1.285157-.070313 1.910157-.21875 19.921874-4.597657 39.160156-11.765625 57.234374-21.320313v35.957032c-.003906 4.710937-3.824218 8.53125-8.535156 8.535156zm-102.398437-477.867188c73.867187 0 133.597656 22.578125 177.542969 67.113282 43.867187 46.535156 68.800781 107.761718 69.921874 171.707031-.710937 63.070312-24.246093 123.746093-66.25 170.796875-9.628906 10.128906-25.484374 11.003906-36.167968 1.992187-10.488282-9.457031-11.375-25.609375-1.988282-36.164062 31.304688-35.015625 49.632813-79.71875 51.914063-126.632813.226563-4.707031-3.40625-8.703125-8.113281-8.929687-4.671875-.117188-8.609375 3.460937-8.933594 8.121093-2.089844 43.003907-18.894531 83.984376-47.601562 116.070313-10.339844 11.699219-13.460938 28.117187-8.136719 42.796875-2.386719 1.59375-4.765625 3.25-7.15625 4.738281-18.050781 10.914063-37.578125 19.167969-57.984375 24.511719-10.929688-21.488281-32.9375-35.078125-57.046875-35.226562h-8.535157c-18.339843.042968-35.636718 8.519531-46.910156 22.988281-11.285156-14.472657-28.605468-22.941407-46.957031-22.960938h-8.53125c-5.597656.011719-11.167969.8125-16.542969 2.382813-79.210937-55.578125-113.242187-156.105469-84.078125-248.375 29.164063-92.265625 114.785157-154.972656 211.554688-154.929688zm-223.859375 349.824219c4.574218-5.132813 8.789062-10.496094 12.785156-15.957031 8.433594 15.820312 18.625 30.636718 30.378906 44.171875-1.675781 1.996093-3.300781 4.039062-5.019531 5.972656-9.628906 10.132813-25.484375 11.003906-36.167969 1.992187-10.492187-9.464843-11.375-25.625-1.976562-36.179687zm0 0"/><path d="m95.207031 120.941406.261719-.152344c6.902344-4.128906 14.207031-7.542968 21.796875-10.195312 7.140625-2.441406 14.566406-3.960938 22.09375-4.515625 7.65625-.292969 15.324219.277344 22.855469 1.695313 3.894531.59375 7.730468 1.839843 11.761718 2.601562 3.933594 1.125 7.871094 2.417969 12.140626 3.304688l.382812.085937c1.429688.296875 2.882812-.410156 3.527344-1.722656.648437-1.308594.328125-2.890625-.773438-3.847657-3.410156-2.953124-7.007812-5.683593-10.765625-8.171874-3.949219-2.324219-8.082031-4.324219-12.359375-5.976563-8.847656-3.371094-18.300781-4.875-27.757812-4.417969-9.605469.519532-18.933594 3.378906-27.175782 8.335938-8.191406 4.707031-14.8125 11.730468-19.03125 20.183594-.40625.855468-.210937 1.878906.488282 2.519531.699218.644531 1.734375.753906 2.554687.277343zm0 0"/><path d="m240.074219 113.757812.378906-.078124c4.265625-.886719 8.203125-2.183594 12.136719-3.304688 4.03125-.765625 7.867187-2.011719 11.761718-2.601562 7.53125-1.421876 15.199219-1.992188 22.859376-1.695313 7.523437.554687 14.949218 2.070313 22.089843 4.511719 7.59375 2.652344 14.894531 6.070312 21.796875 10.199218l.273438.160157c.820312.46875 1.851562.355469 2.546875-.289063.695312-.640625.890625-1.660156.484375-2.515625-4.21875-8.453125-10.839844-15.472656-19.027344-20.183593-8.242188-4.957032-17.574219-7.816407-27.179688-8.335938-9.457031-.457031-18.910156 1.046875-27.757812 4.421875-4.277344 1.648437-8.410156 3.648437-12.359375 5.972656-3.757813 2.488281-7.355469 5.21875-10.761719 8.171875-1.105468.957032-1.425781 2.539063-.777344 3.851563.648438 1.308593 2.101563 2.015625 3.535157 1.71875zm0 0"/><path d="m135.875 269.894531c-1.75-4.375-6.71875-6.503906-11.09375-4.753906-4.378906 1.753906-6.507812 6.71875-4.753906 11.097656.78125 1.957031 20.058594 48.027344 93.257812 48.027344 73.199219 0 92.472656-46.070313 93.257813-48.027344 1.140625-2.828125.691406-6.050781-1.1875-8.453125-1.875-2.402344-4.890625-3.625-7.910157-3.199218-3.019531.421874-5.585937 2.425781-6.726562 5.25-.636719 1.523437-16.335938 37.363281-77.433594 37.363281-61.101562 0-76.800781-35.839844-77.410156-37.304688zm0 0"/><path d="m96.316406 190.234375c-3.234375 3.347656-3.1875 8.667969.105469 11.960937 3.292969 3.292969 8.613281 3.339844 11.960937.105469 10.0625-9.105469 23.066407-14.277343 36.632813-14.566406 13.550781.367187 26.53125 5.527344 36.636719 14.566406 3.347656 3.234375 8.667968 3.1875 11.960937-.105469 3.292969-3.292968 3.335938-8.613281.105469-11.960937-13.289062-12.273437-30.617188-19.234375-48.703125-19.566406-18.082031.332031-35.410156 7.292969-48.699219 19.566406zm0 0"/><path d="m244.917969 202.300781c10.058593-9.105469 23.066406-14.277343 36.632812-14.566406 13.550781.367187 26.53125 5.527344 36.632813 14.566406 3.347656 3.234375 8.671875 3.1875 11.960937-.105469 3.292969-3.292968 3.339844-8.613281.105469-11.960937-27.226562-26.089844-70.175781-26.089844-97.398438 0-3.234374 3.347656-3.1875 8.667969.101563 11.960937 3.292969 3.292969 8.617187 3.339844 11.964844.105469zm0 0"/></svg>