<svg height="512pt" viewBox="0 0 512.01888 512" width="512pt" xmlns="http://www.w3.org/2000/svg"><path d="m42.6875 426.675781c12.140625-.011719 23.707031-5.179687 31.816406-14.214843 1.363282-1.539063 2.628906-3.160157 3.96875-4.726563 7.519532 7.535156 15.53125 14.5625 23.984375 21.035156-16.054687 11.175781-25.628906 29.496094-25.636719 49.058594v8.546875c.003907 14.140625 11.457032 25.609375 25.597657 25.632812h247.46875c14.132812-.015624 25.582031-11.464843 25.597656-25.597656v-45.851562c1.023437-.664063 2.035156-1.347656 3.058594-2.023438.890625.960938 1.648437 2.007813 2.644531 2.898438 17.566406 15.675781 44.503906 14.179687 60.226562-3.34375 44.761719-50.121094 69.847657-114.769532 70.605469-181.96875-.71875-68.578125-27.472656-134.320313-74.839843-183.917969-47.273438-47.90625-111.09375-72.1953125-189.695313-72.1953125-131.523437.1953125-238.238281 106.5078125-238.925781 238.0312495-1.644532 7.242188-1.332032 14.789063.90625 21.871094.007812.09375-.039063.175782-.03125.269532 2.25 25.175781 8.480468 49.835937 18.460937 73.058593-5.125 7.839844-10.8125 15.296875-17.015625 22.3125-11.226562 12.542969-14.03125 30.511719-7.160156 45.878907 6.871094 15.363281 22.132812 25.253906 38.96875 25.246093zm51.199219 59.699219v-8.546875c0-23.582031 19.085937-42.710937 42.664062-42.765625h8.535157c15.804687.011719 30.300781 8.78125 37.640624 22.777344-.1875.550781-.449218 1.144531-.609374 1.675781-1.929688 5.898437-2.90625 12.070313-2.898438 18.277344v8.617187c.027344 2.914063.5625 5.800782 1.574219 8.535156h-78.375c-4.71875-.011718-8.539063-3.847656-8.53125-8.570312zm256 8.566406h-145.066407c-4.710937-.003906-8.53125-3.820312-8.535156-8.53125v-8.621094c0-4.476562.714844-8.925781 2.117188-13.179687.40625-1.34375.886718-2.667969 1.433594-3.960937 6.800781-15.542969 22.148437-25.59375 39.117187-25.609376h8.53125c18.828125.050782 35.8125 11.324219 43.167969 28.65625.066406.183594.210937.300782.285156.472657-.019531.398437-.007812.796875.03125 1.191406.886719 3.875 4.332031 6.628906 8.308594 6.628906.640625.003907 1.28125-.070312 1.910156-.214843 19.917969-4.601563 39.15625-11.769532 57.230469-21.320313v35.957031c-.003907 4.710938-3.820313 8.527344-8.53125 8.53125zm-102.402344-477.867187c73.867187 0 133.601563 22.582031 177.542969 67.113281 43.871094 46.539062 68.804687 107.765625 69.925781 171.710938-.703125 63.070312-24.238281 123.746093-66.25 170.792968-9.632813 10.132813-25.488281 11.003906-36.175781 1.992188-10.484375-9.460938-11.371094-25.609375-1.984375-36.160156 31.304687-35.015626 49.636719-79.722657 51.917969-126.636719.222656-4.707031-3.410157-8.703125-8.117188-8.929688-4.660156-.089843-8.582031 3.472657-8.933594 8.121094-2.085937 43.003906-18.894531 83.988281-47.597656 116.074219-10.34375 11.703125-13.464844 28.117187-8.136719 42.796875-2.390625 1.59375-4.765625 3.25-7.15625 4.738281-18.050781 10.914062-37.582031 19.167969-57.984375 24.511719-10.929687-21.488281-32.941406-35.082031-57.050781-35.226563h-8.53125c-18.339844.042969-35.640625 8.519532-46.910156 22.984375-11.285157-14.46875-28.605469-22.9375-46.957031-22.960937h-8.535157c-5.601562.011718-11.175781.816406-16.554687 2.390625-44.554688-31.136719-76.054688-77.621094-88.460938-130.542969 21.90625 13.65625 50.628906 8.234375 66.046875-12.472656 13.464844-17.976563 13.640625-69.804688 13.355469-85.738282 9.683594-7.824218 21.699219-12.195312 34.148438-12.421874 13.558593.367187 26.546874 5.535156 36.648437 14.585937 3.339844 3.328125 8.742187 3.320313 12.070313-.019531 3.328124-3.335938 3.320312-8.738282-.019532-12.066406-13.285156-12.273438-30.617187-19.234376-48.699218-19.566407-17.199219.277344-33.75 6.585938-46.769532 17.828125-10.269531 2.734375-49.492187 13.832032-70.527344 28.367188 15.414063-109.550782 109.066407-191.082032 219.695313-191.265625zm-153.539063 181.839843c-.035156 24.699219-2.527343 58.226563-10.019531 68.222657-10.890625 14.539062-31.507812 17.496093-46.046875 6.601562-14.539062-10.894531-17.496094-31.511719-6.601562-46.050781h.007812c7.492188-10 38.964844-21.808594 62.660156-28.773438zm-70.316406 167.988282c4.558594-5.121094 8.761719-10.460938 12.75-15.90625 8.417969 15.828125 18.601563 30.652344 30.355469 44.183594-1.65625 1.976562-3.261719 3.996093-4.964844 5.914062-9.632812 10.128906-25.488281 11.003906-36.171875 1.992188-10.488281-9.472657-11.371094-25.632813-1.96875-36.183594zm0 0"/><path d="m117.96875 124.378906c9.773438 2.976563 20.140625 3.421875 30.132812 1.296875 10.191407-2.019531 19.589844-6.925781 27.070313-14.132812 3.679687-3.371094 6.914063-7.195313 9.632813-11.378907 2.507812-4.144531 4.652343-8.496093 6.414062-13.003906.570312-1.347656.144531-2.910156-1.03125-3.78125-1.171875-.875-2.789062-.832031-3.917969.101563l-.441406.367187c-3.546875 2.929688-6.390625 6.226563-9.640625 9-3.132812 2.734375-6.445312 5.253906-9.921875 7.535156-6.492187 4.488282-13.832031 7.605469-21.570313 9.167969-16.609374 2.445313-33.554687 1.324219-49.699218-3.285156l-.21875-.046875c-.941406-.207031-1.90625.230469-2.367188 1.074219-.464844.847656-.3125 1.898437.367188 2.578125 7.078125 6.832031 15.730468 11.816406 25.191406 14.507812zm0 0"/><path d="m242.675781 100.164062c2.714844 4.183594 5.953125 8.007813 9.628907 11.378907 7.484374 7.207031 16.878906 12.113281 27.074218 14.132812 19.914063 4.0625 40.558594-1.832031 55.324219-15.800781.523437-.53125.742187-1.289062.582031-2.015625-.269531-1.167969-1.429687-1.902344-2.597656-1.632813l-.203125.042969c-16.148437 4.609375-33.09375 5.726563-49.707031 3.28125-7.738282-1.5625-15.078125-4.683593-21.570313-9.171875-3.476562-2.28125-6.789062-4.796875-9.921875-7.53125-3.25-2.777344-6.09375-6.074218-9.640625-9.003906l-.445312-.359375c-1.125-.929687-2.738281-.96875-3.910157-.097656-1.171874.871093-1.597656 2.429687-1.03125 3.777343 1.761719 4.507813 3.910157 8.855469 6.417969 13zm0 0"/><path d="m244.984375 193.777344c19.628906-18.585938 50.074219-19.496094 70.773437-2.109375-.320312 16.722656-.019531 63.773437 12.6875 80.730469 7.535157 10.109374 18.800782 16.789062 31.289063 18.542968 2.265625.324219 4.554687.488282 6.84375.488282 17.976563-.042969 34.390625-10.226563 42.414063-26.3125 8.023437-16.085938 6.28125-35.324219-4.5-49.710938-13.332032-17.796875-62.332032-31.785156-76.105469-35.429688-27.398438-24.425781-68.976563-23.671874-95.46875 1.734376-3.246094 3.347656-3.203125 8.679687.09375 11.976562 3.292969 3.296875 8.628906 3.335938 11.972656.089844zm145.851563 31.863281h.007812c9.992188 13.460937 7.222656 32.464844-6.195312 42.515625-13.414063 10.050781-32.429688 7.375-42.542969-5.996094-6.917969-9.226562-9.269531-40.136718-9.335938-63.238281 22.152344 6.550781 51.148438 17.472656 58.066407 26.71875zm0 0"/><path d="m145.085938 307.210938v8.710937c.027343 23.554687 19.113281 42.640625 42.667968 42.667969h51.199219c23.550781-.027344 42.636719-19.113282 42.664063-42.667969v-8.710937c-.035157-32.976563-26.757813-59.695313-59.730469-59.734376h-17.066407c-32.976562.039063-59.695312 26.757813-59.734374 59.734376zm93.867187 34.3125h-17.066406v-8.542969c-.007813-14.15625 11.441406-25.644531 25.597656-25.683594h17.066406v8.625c-.015625 14.132813-11.464843 25.585937-25.597656 25.601563zm-34.132813-76.980469h17.066407c16.980469.027343 32.328125 10.113281 39.097656 25.683593h-13.5c-23.574219.050782-42.660156 19.175782-42.664063 42.753907v8.542969h-17.066406c-14.132812-.015626-25.585937-11.46875-25.601562-25.601563v-8.710937c.027344-23.554688 19.113281-42.640626 42.667968-42.667969zm0 0"/></svg>